<?xml version="1.0" standalone="no"?>
<!DOCTYPE svg PUBLIC "-//W3C//DTD SVG 20010904//EN"
 "http://www.w3.org/TR/2001/REC-SVG-20010904/DTD/svg10.dtd">
<svg version="1.0" xmlns="http://www.w3.org/2000/svg"
 width="1080.000000pt" height="1080.000000pt" viewBox="0 0 1080.000000 1080.000000"
 preserveAspectRatio="xMidYMid meet">

<g transform="translate(0.000000,1080.000000) scale(0.100000,-0.100000)"
fill="#000000" stroke="none">
<path d="M5193 5683 c-14 -3 -23 -12 -23 -23 0 -18 10 -20 102 -22 l102 -3
114 -147 c113 -146 115 -148 154 -148 l39 0 -3 143 -3 142 -60 0 c-58 0 -60
-1 -63 -27 -3 -25 0 -28 27 -28 31 0 31 -1 31 -51 0 -63 -2 -62 -95 64 -60 82
-75 96 -105 101 -39 6 -182 6 -217 -1z"/>
<path d="M5583 5683 c-15 -3 -23 -12 -23 -24 0 -18 8 -19 120 -19 111 0 120 1
120 19 0 13 -10 20 -31 25 -34 6 -150 6 -186 -1z"/>
<path d="M7083 5684 c-24 -4 -33 -10 -33 -25 0 -18 9 -19 186 -19 205 0 236
-7 267 -59 23 -39 23 -144 -1 -191 -31 -62 -61 -70 -274 -70 l-188 0 0 -25 0
-25 198 0 c254 1 291 9 346 84 18 24 21 42 21 133 l0 105 -37 33 c-20 18 -53
38 -75 44 -40 12 -356 23 -410 15z"/>
<path d="M5300 5485 l0 -145 60 0 c53 0 60 2 60 20 0 15 -7 20 -25 20 -30 0
-37 14 -33 66 l3 39 76 -105 75 -105 122 -3 122 -3 0 151 c0 143 1 150 20 150
16 0 20 7 20 30 0 29 -1 30 -50 30 l-50 0 0 -155 0 -155 -53 0 -53 0 -119 155
c-103 134 -123 155 -147 155 l-28 0 0 -145z"/>
<path d="M7190 5486 l0 -146 120 0 c118 0 120 0 152 29 29 25 32 35 36 95 8
130 -24 157 -195 164 l-113 5 0 -147z m203 63 c11 -14 17 -38 17 -71 0 -65
-30 -98 -90 -98 l-40 0 0 93 c0 52 3 97 8 101 13 14 87 -4 105 -25z"/>
<path d="M5166 5604 c-10 -27 -7 -34 19 -34 25 0 25 0 25 -95 0 -88 -1 -95
-20 -95 -13 0 -20 -7 -20 -20 0 -18 7 -20 55 -20 l55 0 0 140 0 140 -54 0
c-40 0 -55 -4 -60 -16z"/>
<path d="M7040 5595 c0 -20 5 -25 25 -25 25 0 25 -1 25 -91 0 -81 -2 -91 -19
-96 -11 -3 -21 -13 -24 -24 -5 -17 1 -19 59 -19 l64 0 0 140 0 140 -65 0 c-63
0 -65 -1 -65 -25z"/>
<path d="M5929 5591 c-77 -25 -99 -62 -99 -169 0 -89 25 -130 90 -150 63 -19
327 -12 341 9 20 31 8 34 -140 34 -135 0 -152 2 -177 21 -53 39 -55 135 -4
185 33 33 114 47 178 30 58 -16 72 -34 72 -92 l0 -49 35 0 c31 0 35 3 41 37
10 51 -6 102 -39 127 -25 18 -44 21 -150 23 -67 1 -134 -2 -148 -6z"/>
<path d="M7678 5589 c-10 -5 -18 -18 -18 -28 0 -17 10 -18 123 -13 189 7 217
-13 217 -160 l0 -58 50 0 c47 0 50 2 50 25 0 17 -5 25 -17 25 -16 0 -18 9 -15
79 4 91 -8 112 -75 130 -48 14 -292 14 -315 0z"/>
<path d="M6300 5565 l0 -25 115 0 c63 0 115 4 115 9 0 5 3 16 6 25 5 14 -9 16
-115 16 l-121 0 0 -25z"/>
<path d="M6550 5485 c-34 -105 -42 -112 -54 -44 -5 31 -3 37 14 42 12 3 20 13
20 26 0 19 -6 21 -60 21 -70 0 -69 4 -37 -115 l22 -80 46 -3 45 -3 36 103 35
103 45 3 c43 3 46 1 52 -25 4 -15 16 -63 28 -106 l20 -78 46 3 46 3 32 85 c18
47 33 91 33 98 1 10 -13 12 -51 10 -46 -3 -53 -6 -56 -25 -3 -18 2 -23 17 -23
12 0 21 -3 21 -6 0 -17 -24 -84 -30 -84 -4 0 -17 45 -29 100 l-22 100 -93 0
-92 0 -34 -105z"/>
<path d="M6820 5565 l0 -26 103 3 c97 3 102 4 105 26 3 22 2 22 -102 22 l-106
0 0 -25z"/>
<path d="M8127 5584 c-4 -4 -7 -16 -7 -26 0 -15 8 -18 60 -18 33 0 60 -4 60
-9 0 -6 14 -48 31 -95 l31 -86 68 0 68 0 26 78 c14 42 26 83 26 90 0 10 -16
12 -62 10 -57 -3 -63 -5 -66 -25 -3 -19 1 -23 22 -23 l25 0 -16 -45 c-8 -25
-18 -45 -22 -45 -4 0 -21 44 -38 98 l-31 97 -84 3 c-46 1 -87 0 -91 -4z"/>
<path d="M8370 5565 l0 -25 120 0 120 0 0 25 0 25 -120 0 -120 0 0 -25z"/>
<path d="M6000 5534 c-68 -25 -92 -73 -72 -142 16 -54 41 -62 182 -62 125 0
170 9 170 35 0 13 -14 14 -98 9 -113 -8 -172 0 -172 21 0 12 17 15 80 15 l80
0 0 49 c0 31 -5 53 -15 61 -16 13 -130 23 -155 14z m98 -66 c3 -15 -4 -18 -48
-18 -48 0 -50 1 -40 21 15 26 83 24 88 -3z"/>
<path d="M6290 5506 c0 -16 6 -26 15 -26 9 0 21 -25 35 -72 12 -40 26 -88 31
-106 l11 -33 111 3 111 3 22 70 21 70 17 -60 c10 -33 19 -66 21 -73 4 -9 32
-12 117 -10 l111 3 36 102 c24 69 42 103 54 107 9 2 17 14 17 26 0 18 -5 21
-37 18 l-38 -3 -39 -107 -39 -108 -62 0 -61 0 -29 111 c-27 107 -29 110 -54
107 -22 -3 -29 -13 -49 -68 -12 -36 -29 -84 -38 -107 l-16 -43 -57 0 -57 0
-30 108 -29 107 -47 3 c-46 3 -48 2 -48 -22z"/>
<path d="M7673 5523 c-16 -3 -23 -12 -23 -28 l0 -25 108 7 c92 5 109 3 121
-11 12 -15 7 -16 -57 -16 -79 0 -92 -10 -92 -70 0 -39 32 -53 110 -48 54 3 54
3 64 -29 l9 -33 87 0 c85 0 100 5 100 36 0 2 -26 4 -59 4 l-59 0 -4 90 c-6
124 -6 125 -161 127 -67 0 -132 -1 -144 -4z m201 -119 c9 -3 16 -12 16 -20 0
-17 -75 -20 -86 -3 -13 21 34 37 70 23z"/>
<path d="M8120 5505 c0 -14 6 -25 14 -25 8 0 28 -38 48 -92 l35 -93 62 -3 c33
-2 61 -7 61 -13 0 -18 -55 -31 -111 -25 -55 5 -57 5 -63 -20 -4 -15 -5 -28 -3
-30 2 -2 41 -5 86 -5 68 -2 87 1 109 18 24 18 71 87 72 105 0 4 -32 8 -72 10
l-72 3 -35 98 -35 97 -48 0 c-45 0 -48 -2 -48 -25z"/>
<path d="M8517 5523 c-2 -5 -19 -53 -37 -108 -41 -125 -72 -187 -106 -214 -23
-18 -40 -21 -120 -21 l-94 0 0 -26 0 -26 114 4 c97 2 119 6 143 24 44 33 68
76 113 204 24 67 48 120 55 120 12 0 25 21 25 41 0 11 -87 12 -93 2z"/>
<path d="M7665 5415 c-31 -30 -34 -92 -6 -126 16 -20 30 -24 92 -27 64 -3 78
-1 102 18 15 12 27 24 27 28 0 4 -31 7 -68 7 -89 0 -105 12 -100 77 4 56 -9
62 -47 23z"/>
<path d="M5167 5313 c-4 -3 -7 -15 -7 -25 0 -16 10 -18 125 -18 l125 0 0 25 0
25 -118 0 c-65 0 -122 -3 -125 -7z"/>
<path d="M4490 5060 l0 -70 75 0 75 0 0 70 0 70 -75 0 -75 0 0 -70z"/>
<path d="M4730 5060 l0 -70 75 0 75 0 0 70 0 70 -75 0 -75 0 0 -70z"/>
<path d="M5214 4900 c-12 -4 -24 -16 -28 -26 -5 -14 -4 -15 8 -5 18 15 76 32
76 22 0 -4 -18 -47 -40 -96 -45 -102 -47 -115 -21 -115 13 0 20 10 25 33 9 47
77 187 91 187 18 0 35 -22 35 -46 0 -25 -34 -54 -63 -54 -16 0 -18 -5 -12 -27
15 -60 36 -93 62 -93 26 0 26 0 -14 59 -13 19 -23 37 -23 42 0 4 17 16 38 26
30 14 38 24 40 51 3 27 -1 34 -23 42 -32 12 -122 12 -151 0z"/>
<path d="M5735 4899 c-26 -7 -24 -8 13 -5 23 2 42 1 42 -2 0 -4 -46 -53 -102
-109 -57 -57 -97 -103 -90 -103 6 0 28 18 48 40 30 33 43 40 75 40 37 0 38 -1
41 -37 3 -34 6 -38 33 -41 24 -3 28 -1 18 9 -19 19 -16 88 6 157 l18 60 -36
-1 c-20 0 -49 -4 -66 -8z m39 -87 c-6 -28 -11 -32 -37 -32 l-31 0 34 35 c18
19 35 33 37 31 2 -1 0 -17 -3 -34z"/>
<path d="M5869 4889 c-13 -11 -18 -17 -10 -13 21 10 82 23 79 16 -52 -101 -78
-162 -78 -184 l0 -28 74 0 c57 0 77 4 87 17 12 15 12 16 -6 9 -34 -14 -112
-19 -119 -8 -9 14 27 108 64 165 l30 47 -49 0 c-35 0 -55 -6 -72 -21z"/>
<path d="M6175 4903 c-12 -2 -27 -13 -34 -25 -12 -20 -12 -20 10 -4 13 9 34
16 46 16 23 0 23 0 5 -37 -9 -21 -21 -41 -26 -45 -5 -3 -11 -17 -12 -30 -2
-12 -6 -40 -10 -60 l-6 -38 74 0 c44 0 79 5 86 12 21 21 13 27 -15 12 -16 -7
-47 -14 -70 -14 -48 0 -52 9 -29 65 14 32 19 35 55 35 22 0 43 5 46 10 4 6
-10 10 -34 10 -23 0 -41 4 -41 9 0 4 10 23 23 42 27 41 56 50 64 20 6 -25 23
-18 23 10 0 17 -7 19 -67 18 -38 -1 -77 -4 -88 -6z"/>
<path d="M6401 4891 c-30 -30 -26 -53 14 -101 41 -50 44 -74 10 -96 -32 -21
-55 -12 -55 21 0 20 -4 26 -17 23 -25 -5 -29 -39 -7 -55 29 -21 79 -16 113 13
41 35 39 62 -10 117 -34 39 -38 49 -29 67 6 12 21 20 35 20 26 0 33 -18 14
-37 -14 -14 3 -25 26 -17 10 4 15 16 13 33 -3 23 -8 26 -45 29 -32 2 -47 -2
-62 -17z"/>
<path d="M6553 4895 c-13 -9 -23 -26 -22 -38 0 -15 2 -17 6 -7 9 26 35 40 74
40 l37 0 -34 -77 c-35 -80 -44 -143 -21 -143 18 0 57 29 57 43 0 8 -3 8 -12
-1 -39 -39 -34 13 11 112 l30 66 45 0 c41 0 46 -3 46 -22 0 -21 1 -21 14 -3
12 17 113 40 125 28 3 -2 -43 -51 -101 -108 -58 -58 -99 -105 -92 -105 8 0 30
18 50 40 30 33 43 40 75 40 37 0 38 -1 41 -37 3 -34 6 -38 33 -40 17 -1 24 0
18 3 -19 8 -16 93 6 163 l19 61 -77 -3 c-42 -2 -85 -7 -95 -12 -12 -5 -17 -5
-14 1 4 5 -37 10 -96 12 -79 2 -106 -1 -123 -13z m341 -83 c-6 -28 -11 -32
-37 -32 l-31 0 34 35 c18 19 35 33 37 31 2 -1 0 -17 -3 -34z"/>
<path d="M6994 4900 c-23 -9 -38 -46 -23 -56 5 -3 9 2 9 10 0 21 31 36 73 36
l35 0 -34 -77 c-33 -77 -44 -143 -23 -143 18 0 46 19 53 36 5 14 4 15 -9 4 -9
-7 -18 -10 -22 -6 -8 8 14 81 43 139 24 46 26 47 70 47 38 0 45 -3 40 -15 -5
-14 -4 -14 16 0 13 8 33 15 45 15 l23 0 -20 -40 c-12 -23 -28 -44 -36 -47 -10
-4 -12 -8 -5 -13 8 -4 7 -19 -4 -49 -8 -24 -12 -47 -9 -52 8 -14 148 -11 162
3 21 21 13 27 -15 12 -33 -17 -113 -19 -113 -3 0 7 5 29 12 50 11 37 13 39 54
39 24 0 46 5 49 10 4 6 -10 10 -34 10 -23 0 -41 4 -41 9 0 4 10 23 23 42 27
41 59 45 67 9 5 -22 7 -23 13 -7 16 42 10 47 -56 47 -34 0 -77 -4 -95 -9 -17
-5 -32 -7 -32 -3 0 11 -192 12 -216 2z"/>
<path d="M7600 4897 c-14 -7 -26 -21 -28 -31 -4 -17 -2 -17 25 2 15 11 50 23
78 26 l50 6 -110 -110 c-65 -65 -103 -110 -93 -110 9 0 32 18 51 40 29 34 40
40 73 40 39 0 40 -1 40 -36 0 -39 15 -54 46 -46 18 4 18 6 4 14 -25 14 -19 79
18 194 6 20 3 22 -61 23 -38 0 -79 -5 -93 -12z m99 -80 c-9 -33 -14 -37 -41
-37 l-32 0 39 40 c21 22 40 38 42 37 1 -2 -2 -20 -8 -40z"/>
<path d="M7865 4896 c-85 -38 -134 -157 -85 -206 15 -15 33 -20 76 -20 51 0
59 3 88 34 38 42 56 64 56 71 0 9 -99 5 -105 -5 -4 -6 7 -10 24 -10 40 0 40
-21 0 -54 -33 -28 -86 -35 -107 -14 -29 29 0 130 51 176 31 29 90 35 95 10 2
-12 -5 -19 -23 -24 -18 -5 -23 -10 -16 -17 15 -15 61 8 61 31 0 41 -55 55
-115 28z"/>
<path d="M8034 4900 c-38 -15 -37 -29 1 -17 19 6 38 8 41 5 7 -7 -24 -70 -39
-80 -6 -3 -11 -17 -13 -30 -1 -12 -5 -40 -9 -60 l-8 -38 75 0 c44 0 79 5 86
12 21 21 13 27 -18 12 -16 -9 -47 -14 -67 -12 -41 3 -45 15 -24 71 9 24 16 27
56 27 56 0 60 18 5 22 l-40 3 18 34 c26 49 46 59 70 38 16 -15 20 -16 25 -3 3
8 3 17 0 20 -9 9 -135 6 -159 -4z"/>
<path d="M8234 4900 c-12 -4 -24 -16 -28 -26 -6 -17 -6 -17 12 -1 10 9 33 20
51 23 l33 7 -17 -33 c-47 -91 -84 -190 -70 -190 7 0 19 17 25 38 7 20 22 59
33 85 l20 48 19 -53 c10 -29 24 -68 30 -85 6 -18 15 -33 19 -33 4 0 17 28 28
63 12 34 34 86 50 115 19 34 25 52 16 52 -7 0 -27 -34 -45 -75 -18 -41 -36
-75 -40 -75 -4 0 -18 34 -31 75 -23 71 -25 75 -54 74 -16 0 -39 -4 -51 -9z"/>
<path d="M8525 4896 c-39 -17 -70 -52 -90 -98 -32 -79 -7 -128 65 -128 47 0
115 31 130 59 18 34 11 36 -22 4 -81 -76 -148 -69 -148 16 0 65 83 156 134
149 29 -4 34 -38 7 -45 -12 -3 -21 -10 -21 -15 0 -16 42 -4 54 15 27 43 -45
72 -109 43z"/>
<path d="M8679 4891 l-24 -19 26 5 c24 4 28 0 44 -41 17 -44 17 -96 0 -138 -5
-14 -2 -18 13 -18 15 0 23 11 32 46 14 49 64 123 109 161 21 18 22 22 9 23
-19 0 -50 -29 -79 -77 -12 -18 -24 -33 -29 -33 -4 0 -13 20 -19 45 -6 25 -19
49 -30 55 -25 13 -25 13 -52 -9z"/>
<path d="M4490 4830 l0 -70 75 0 75 0 0 70 0 70 -75 0 -75 0 0 -70z"/>
<path d="M4730 4830 l0 -70 75 0 75 0 0 70 0 70 -75 0 -75 0 0 -70z"/>
<path d="M5420 4885 c-11 -14 -10 -14 14 -5 51 19 58 15 41 -27 -9 -21 -21
-40 -27 -44 -6 -4 -12 -18 -14 -31 -1 -12 -5 -40 -9 -60 l-8 -38 75 0 c44 0
79 5 86 12 21 21 13 27 -18 12 -16 -9 -47 -14 -67 -12 -36 3 -38 5 -35 32 6
54 19 66 67 66 25 0 45 5 45 10 0 6 -18 10 -40 10 -22 0 -40 3 -40 6 0 4 9 21
20 39 l20 32 -31 7 c-48 9 -65 7 -79 -9z"/>
<path d="M5587 4883 c-4 -3 -7 -13 -7 -22 1 -13 3 -13 11 2 11 19 8 33 -4 20z"/>
<path d="M5653 4875 c-8 -23 0 -24 20 -3 14 15 15 18 2 18 -9 0 -18 -7 -22
-15z"/>
</g>
</svg>
