<?xml version="1.0" encoding="utf-8"?>
<!-- Generator: Adobe Illustrator 24.0.0, SVG Export Plug-In . SVG Version: 6.00 Build 0)  -->
<svg version="1.1" id="Layer_1" xmlns="http://www.w3.org/2000/svg" xmlns:xlink="http://www.w3.org/1999/xlink" x="0px" y="0px"
	 viewBox="0 0 595.28 588.26" style="enable-background:new 0 0 595.28 588.26;" xml:space="preserve">
<style type="text/css">
	.st0{fill:url(#SVGID_1_);}
	.st1{fill:#DFA649;}
</style>
<g>
	<radialGradient id="SVGID_1_" cx="293.2951" cy="210.5932" r="151.8354" gradientUnits="userSpaceOnUse">
		<stop  offset="0" style="stop-color:#DFB77C"/>
		<stop  offset="0.3319" style="stop-color:#D5A662"/>
		<stop  offset="1" style="stop-color:#C08329"/>
	</radialGradient>
	<path class="st0" d="M292.83,181.14c-3.15,0.04-5.84-2.25-6.27-5.37L272.95,75.49l20.35-11.58l19.19,10.92l-12.86,100.88
		c-0.4,3.14-3.1,5.43-6.27,5.43c-0.02,0-0.04,0-0.06,0C293.14,181.14,292.99,181.14,292.83,181.14z M323.59,185.53l55.43-72.84
		L346.9,94.41l-34.65,84.63c-1.18,2.88-0.05,6.22,2.66,7.74c0.21,0.12,0.43,0.24,0.64,0.37
		C318.25,188.72,321.7,188.01,323.59,185.53z M273.96,179.2l-35.28-84.21l-32.11,18.27l56.11,72.52c1.91,2.47,5.37,3.15,8.05,1.55
		c0.21-0.13,0.42-0.25,0.64-0.37C274.07,185.41,275.17,182.07,273.96,179.2z M337.5,225.34c0,0.02,0,0.04,0,0.06
		c0,3.17,2.28,5.87,5.43,6.27l107.19,13.67v-41.29l-107.25,14.56c-3.12,0.42-5.41,3.12-5.37,6.27
		C337.5,225.03,337.5,225.18,337.5,225.34z M339.44,206.01l110.68-46.37v-6.5l-36.6-20.83l-80.65,62.41
		c-2.47,1.91-3.15,5.37-1.55,8.05c0.13,0.21,0.25,0.42,0.37,0.64C333.23,206.11,336.57,207.21,339.44,206.01z M253.48,195.05
		l-81.58-62.07l-35.43,20.16v7.99L247,206.38c2.88,1.18,6.22,0.05,7.74-2.66c0.12-0.21,0.24-0.43,0.37-0.64
		C256.68,200.39,255.97,196.94,253.48,195.05z M249.09,225.34c0-0.02,0-0.04,0-0.06c0-3.17-2.28-5.87-5.43-6.27l-107.19-13.67v41.29
		l107.25-14.56c3.12-0.42,5.41-3.12,5.37-6.27C249.09,225.65,249.09,225.49,249.09,225.34z M312.63,271.48l35.95,85.79h46.81
		l-71.48-92.37c-1.91-2.47-5.37-3.15-8.05-1.55c-0.21,0.13-0.42,0.25-0.64,0.37C312.52,265.27,311.42,268.61,312.63,271.48z
		 M293.3,269.54c-0.02,0-0.04,0-0.06,0c-3.17,0-5.87,2.28-6.27,5.43l-10.5,82.31h34.74l-11.18-82.36c-0.42-3.12-3.12-5.41-6.27-5.37
		C293.6,269.54,293.45,269.54,293.3,269.54z M331.85,246.96c-0.12,0.21-0.24,0.43-0.37,0.64c-1.57,2.7-0.86,6.14,1.62,8.03
		l117.01,89.03v-55.11l-110.52-45.25C336.71,243.11,333.38,244.24,331.85,246.96z M247.15,244.67l-110.68,46.37v55.64l117.26-90.73
		c2.47-1.91,3.15-5.37,1.55-8.05c-0.13-0.21-0.25-0.42-0.37-0.64C253.36,244.56,250.02,243.47,247.15,244.67z M263,265.15
		l-70.1,92.12h46.37l35.07-85.64c1.18-2.88,0.05-6.22-2.66-7.74c-0.21-0.12-0.43-0.24-0.64-0.37
		C268.34,261.95,264.89,262.67,263,265.15z"/>
	<g>
		<path d="M260.37,409.02c5.7,5.69,8.54,12.53,8.54,20.51c0,8-2.85,14.85-8.54,20.53c-5.7,5.68-12.53,8.53-20.51,8.53h-11.64v-58.11
			h11.64C247.84,400.47,254.68,403.32,260.37,409.02z M252.15,441.84c3.41-3.4,5.12-7.5,5.12-12.31c0-4.78-1.71-8.89-5.12-12.31
			c-3.41-3.43-7.51-5.14-12.29-5.14v34.86C244.64,446.94,248.74,445.24,252.15,441.84z"/>
		<g>
			<polygon points="79.64,426.94 91.29,437.8 91.29,458.58 79.64,458.58 			"/>
			<polygon points="126.16,442.92 126.16,458.58 91.29,426.78 91.29,426.83 79.64,416.07 79.64,400.46 107.51,425.85 			"/>
			<polygon points="126.15,445.67 126.15,400.47 114.51,400.47 114.51,434.87 			"/>
		</g>
		<path d="M301.48,422.46l8.15,6.54v28.57h-8.15v-3.68c-3.34,3.12-6.93,4.69-10.78,4.69c-4.85,0-8.87-1.75-12.04-5.26
			c-3.15-3.58-4.72-8.05-4.72-13.41c0-5.26,1.57-9.65,4.72-13.16c3.15-3.51,7.09-5.26,11.82-5.26c4.09,0,7.75,1.68,11,5.05V422.46z
			 M282.23,439.91c0,3.37,0.9,6.1,2.7,8.22c1.85,2.14,4.18,3.21,6.99,3.21c3,0,5.43-1.03,7.28-3.1c1.85-2.14,2.78-4.85,2.78-8.15
			c0-3.29-0.93-6.01-2.78-8.15c-1.85-2.09-4.25-3.14-7.21-3.14c-2.79,0-5.12,1.06-6.99,3.17
			C283.15,434.12,282.23,436.76,282.23,439.91z"/>
		<path d="M165.36,441.93H140.2c0.22,2.88,1.15,5.18,2.81,6.88c1.66,1.68,3.78,2.52,6.38,2.52c2.02,0,3.69-0.48,5.01-1.44
			c1.3-0.96,2.11-1.68,3.77-4.28c0,0,4.9,6.74,4.92,6.78c-1.18,1.29-3.19,2.96-4.54,3.79c-1.35,0.83-2.8,1.44-4.36,1.82
			c-1.56,0.38-3.26,0.58-5.08,0.58c-5.24,0-9.44-1.68-12.62-5.05c-3.17-3.39-4.76-7.88-4.76-13.48c0-5.55,1.54-10.04,4.61-13.48
			c3.1-3.39,7.21-5.08,12.33-5.08c5.17,0,9.25,1.65,12.26,4.94c2.98,3.27,4.47,7.8,4.47,13.59L165.36,441.93z M157.04,435.3
			c-1.13-4.33-3.86-6.49-8.18-6.49c-0.99,0-1.91,0.15-2.78,0.45c-0.87,0.3-1.65,0.73-2.36,1.3c-0.71,0.57-1.32,1.24-1.82,2.04
			c-0.5,0.79-0.89,1.69-1.15,2.7H157.04z"/>
		<g>
			<polygon points="220.49,420.85 211.4,420.85 206.85,430.85 211.03,440.27 			"/>
			<polygon points="184.84,458.58 189.13,448.78 175.61,420.85 166.48,420.85 			"/>
			<polygon points="206.18,448.78 193.8,420.85 188.96,428.83 202.55,458.58 			"/>
		</g>
		<g>
			<polygon points="338.42,457.42 354.61,426.03 345.46,426.03 333.91,448.85 			"/>
			<polygon points="335.45,446.18 335.43,446.21 324.69,426.03 315.28,426.03 331.07,454.61 317.37,480.24 326.64,480.24 
				339.91,454.53 			"/>
		</g>
		<path d="M390.35,446.94h3.05h17.41v11.64H393.4h-17.45v-5.82v-5.82c0,0,23.25-26.46,23.25-29.06c0-1.59-0.57-2.95-1.71-4.09
			c-1.14-1.14-2.51-1.71-4.09-1.71c-1.61,0-2.98,0.57-4.11,1.71c-1.13,1.14-1.69,2.51-1.69,4.09h-11.64c0-4.78,1.71-8.88,5.12-12.29
			c3.41-3.41,7.52-5.12,12.33-5.12c4.78,0,8.88,1.71,12.29,5.12c3.41,3.41,5.12,7.51,5.12,12.29
			C410.81,421.92,390.35,446.9,390.35,446.94z"/>
		<path d="M450.13,400.54l-14.53,34.79h14.53v-23.25h11.61v23.25h5.84v11.61h-5.84v11.64h-11.61v-11.64h-31.98l21.13-46.47
			L450.13,400.54z"/>
		<path d="M515.63,400.47l-18.35,58.11H485.1l14.53-46.72l-24.69,0.16v-11.55H515.63z"/>
	</g>
	<g>
		<path class="st1" d="M82.19,493.66c1.48-0.3,3.59-0.47,5.6-0.47c3.12,0,5.13,0.57,6.54,1.84c1.14,1.01,1.78,2.55,1.78,4.29
			c0,2.99-1.88,4.96-4.26,5.77v0.1c1.74,0.6,2.78,2.21,3.32,4.56c0.74,3.15,1.27,5.33,1.74,6.21H93.9c-0.37-0.64-0.87-2.58-1.51-5.4
			c-0.67-3.12-1.88-4.29-4.53-4.39h-2.75v9.79h-2.92V493.66z M85.11,503.96h2.98c3.12,0,5.1-1.71,5.1-4.29
			c0-2.92-2.11-4.19-5.2-4.23c-1.41,0-2.41,0.13-2.88,0.27V503.96z"/>
		<path class="st1" d="M101.07,508.39c0.07,3.99,2.62,5.63,5.57,5.63c2.11,0,3.39-0.37,4.49-0.84l0.5,2.11
			c-1.04,0.47-2.82,1.01-5.4,1.01c-5,0-7.98-3.29-7.98-8.18c0-4.9,2.88-8.75,7.61-8.75c5.3,0,6.71,4.66,6.71,7.65
			c0,0.6-0.07,1.07-0.1,1.38H101.07z M109.73,506.27c0.03-1.88-0.77-4.8-4.09-4.8c-2.98,0-4.29,2.75-4.53,4.8H109.73z"/>
		<path class="st1" d="M124.38,515.97l-0.23-2.05h-0.1c-0.91,1.27-2.65,2.42-4.96,2.42c-3.29,0-4.96-2.31-4.96-4.66
			c0-3.92,3.49-6.07,9.76-6.04v-0.33c0-1.34-0.37-3.76-3.69-3.76c-1.51,0-3.09,0.47-4.23,1.21l-0.67-1.95
			c1.34-0.87,3.29-1.44,5.33-1.44c4.96,0,6.17,3.39,6.17,6.64v6.07c0,1.41,0.07,2.78,0.27,3.89H124.38z M123.94,507.68
			c-3.22-0.07-6.88,0.5-6.88,3.66c0,1.91,1.27,2.82,2.78,2.82c2.11,0,3.45-1.34,3.92-2.72c0.1-0.3,0.17-0.64,0.17-0.94V507.68z"/>
		<path class="st1" d="M130.72,492.15h2.95v23.81h-2.95V492.15z"/>
		<path class="st1" d="M155.87,505.37h-8.79v8.15h9.79v2.45h-12.71v-22.61h12.21v2.45h-9.29v7.14h8.79V505.37z"/>
		<path class="st1" d="M159.32,512.95c0.87,0.57,2.41,1.17,3.89,1.17c2.15,0,3.15-1.07,3.15-2.42c0-1.41-0.84-2.18-3.02-2.98
			c-2.92-1.04-4.29-2.65-4.29-4.59c0-2.62,2.11-4.76,5.6-4.76c1.64,0,3.09,0.47,3.99,1.01l-0.74,2.15c-0.64-0.4-1.81-0.94-3.32-0.94
			c-1.74,0-2.72,1.01-2.72,2.21c0,1.34,0.97,1.95,3.09,2.75c2.82,1.07,4.26,2.48,4.26,4.9c0,2.85-2.21,4.86-6.07,4.86
			c-1.78,0-3.42-0.44-4.56-1.11L159.32,512.95z"/>
		<path class="st1" d="M175.72,495.07v4.66h4.23v2.25h-4.23v8.75c0,2.01,0.57,3.15,2.21,3.15c0.77,0,1.34-0.1,1.71-0.2l0.13,2.21
			c-0.57,0.24-1.48,0.4-2.62,0.4c-1.38,0-2.48-0.44-3.19-1.24c-0.84-0.87-1.14-2.31-1.14-4.23v-8.85h-2.52v-2.25h2.52v-3.89
			L175.72,495.07z"/>
		<path class="st1" d="M191.41,515.97l-0.23-2.05h-0.1c-0.91,1.27-2.65,2.42-4.96,2.42c-3.29,0-4.96-2.31-4.96-4.66
			c0-3.92,3.49-6.07,9.76-6.04v-0.33c0-1.34-0.37-3.76-3.69-3.76c-1.51,0-3.09,0.47-4.23,1.21l-0.67-1.95
			c1.34-0.87,3.29-1.44,5.33-1.44c4.96,0,6.17,3.39,6.17,6.64v6.07c0,1.41,0.07,2.78,0.27,3.89H191.41z M190.98,507.68
			c-3.22-0.07-6.88,0.5-6.88,3.66c0,1.91,1.27,2.82,2.78,2.82c2.11,0,3.45-1.34,3.92-2.72c0.1-0.3,0.17-0.64,0.17-0.94V507.68z"/>
		<path class="st1" d="M201.17,495.07v4.66h4.23v2.25h-4.23v8.75c0,2.01,0.57,3.15,2.21,3.15c0.77,0,1.34-0.1,1.71-0.2l0.13,2.21
			c-0.57,0.24-1.48,0.4-2.62,0.4c-1.38,0-2.48-0.44-3.19-1.24c-0.84-0.87-1.14-2.31-1.14-4.23v-8.85h-2.52v-2.25h2.52v-3.89
			L201.17,495.07z"/>
		<path class="st1" d="M209.32,508.39c0.07,3.99,2.62,5.63,5.57,5.63c2.11,0,3.39-0.37,4.49-0.84l0.5,2.11
			c-1.04,0.47-2.82,1.01-5.4,1.01c-5,0-7.98-3.29-7.98-8.18c0-4.9,2.88-8.75,7.61-8.75c5.3,0,6.71,4.66,6.71,7.65
			c0,0.6-0.07,1.07-0.1,1.38H209.32z M217.97,506.27c0.03-1.88-0.77-4.8-4.09-4.8c-2.98,0-4.29,2.75-4.53,4.8H217.97z"/>
		<path class="st1" d="M230.01,493.63c1.41-0.23,3.25-0.44,5.6-0.44c2.88,0,5,0.67,6.34,1.88c1.24,1.07,1.98,2.72,1.98,4.73
			c0,2.05-0.6,3.66-1.74,4.83c-1.54,1.64-4.06,2.48-6.91,2.48c-0.87,0-1.68-0.03-2.35-0.2v9.06h-2.92V493.63z M232.93,504.53
			c0.64,0.17,1.44,0.23,2.42,0.23c3.52,0,5.67-1.71,5.67-4.83c0-2.99-2.11-4.43-5.33-4.43c-1.27,0-2.25,0.1-2.75,0.24V504.53z"/>
		<path class="st1" d="M246.74,492.15h2.95v10.13h0.07c0.47-0.84,1.21-1.58,2.11-2.08c0.87-0.5,1.91-0.84,3.02-0.84
			c2.18,0,5.67,1.34,5.67,6.94v9.66h-2.95v-9.32c0-2.62-0.97-4.83-3.76-4.83c-1.91,0-3.42,1.34-3.96,2.95
			c-0.17,0.4-0.2,0.84-0.2,1.41v9.79h-2.95V492.15z"/>
		<path class="st1" d="M279.2,507.71c0,6-4.16,8.62-8.08,8.62c-4.39,0-7.78-3.22-7.78-8.35c0-5.43,3.56-8.62,8.05-8.62
			C276.05,499.36,279.2,502.75,279.2,507.71z M266.33,507.88c0,3.56,2.05,6.24,4.93,6.24c2.82,0,4.93-2.65,4.93-6.31
			c0-2.75-1.38-6.24-4.86-6.24C267.83,501.58,266.33,504.8,266.33,507.88z"/>
		<path class="st1" d="M285.64,495.07v4.66h4.23v2.25h-4.23v8.75c0,2.01,0.57,3.15,2.21,3.15c0.77,0,1.34-0.1,1.71-0.2l0.13,2.21
			c-0.57,0.24-1.48,0.4-2.62,0.4c-1.38,0-2.48-0.44-3.19-1.24c-0.84-0.87-1.14-2.31-1.14-4.23v-8.85h-2.52v-2.25h2.52v-3.89
			L285.64,495.07z"/>
		<path class="st1" d="M306.84,507.71c0,6-4.16,8.62-8.08,8.62c-4.39,0-7.78-3.22-7.78-8.35c0-5.43,3.56-8.62,8.05-8.62
			C303.68,499.36,306.84,502.75,306.84,507.71z M293.96,507.88c0,3.56,2.05,6.24,4.93,6.24c2.82,0,4.93-2.65,4.93-6.31
			c0-2.75-1.38-6.24-4.86-6.24S293.96,504.8,293.96,507.88z"/>
		<path class="st1" d="M327.79,505.37h-8.79v8.15h9.79v2.45h-12.71v-22.61h12.21v2.45h-9.29v7.14h8.79V505.37z"/>
		<path class="st1" d="M345.53,492.15v19.62c0,1.44,0.03,3.09,0.13,4.19h-2.65l-0.13-2.82h-0.07c-0.91,1.81-2.88,3.19-5.53,3.19
			c-3.92,0-6.94-3.32-6.94-8.25c-0.03-5.4,3.32-8.72,7.28-8.72c2.48,0,4.16,1.17,4.9,2.48h0.07v-9.69H345.53z M342.58,506.34
			c0-0.37-0.03-0.87-0.13-1.24c-0.44-1.88-2.05-3.42-4.26-3.42c-3.05,0-4.86,2.68-4.86,6.27c0,3.29,1.61,6,4.8,6
			c1.98,0,3.79-1.31,4.33-3.52c0.1-0.4,0.13-0.8,0.13-1.27V506.34z"/>
		<path class="st1" d="M352.88,495.17c0.03,1.01-0.7,1.81-1.88,1.81c-1.04,0-1.78-0.8-1.78-1.81c0-1.04,0.77-1.84,1.84-1.84
			C352.17,493.33,352.88,494.13,352.88,495.17z M349.59,515.97v-16.23h2.95v16.23H349.59z"/>
		<path class="st1" d="M360.15,495.07v4.66h4.23v2.25h-4.23v8.75c0,2.01,0.57,3.15,2.21,3.15c0.77,0,1.34-0.1,1.71-0.2l0.13,2.21
			c-0.57,0.24-1.48,0.4-2.62,0.4c-1.38,0-2.48-0.44-3.19-1.24c-0.84-0.87-1.14-2.31-1.14-4.23v-8.85h-2.52v-2.25h2.52v-3.89
			L360.15,495.07z"/>
		<path class="st1" d="M370.14,495.17c0.03,1.01-0.7,1.81-1.88,1.81c-1.04,0-1.78-0.8-1.78-1.81c0-1.04,0.77-1.84,1.84-1.84
			C369.44,493.33,370.14,494.13,370.14,495.17z M366.86,515.97v-16.23h2.95v16.23H366.86z"/>
		<path class="st1" d="M373.87,504.13c0-1.68-0.03-3.05-0.13-4.39h2.62l0.17,2.68h0.07c0.8-1.54,2.68-3.05,5.37-3.05
			c2.25,0,5.74,1.34,5.74,6.91v9.69h-2.95v-9.36c0-2.62-0.97-4.8-3.76-4.8c-1.95,0-3.45,1.38-3.96,3.02
			c-0.13,0.37-0.2,0.87-0.2,1.38v9.76h-2.95V504.13z"/>
		<path class="st1" d="M405.62,499.73c-0.07,1.17-0.13,2.48-0.13,4.46v9.42c0,3.72-0.74,6-2.31,7.41c-1.58,1.48-3.86,1.95-5.9,1.95
			c-1.95,0-4.09-0.47-5.4-1.34l0.74-2.25c1.07,0.67,2.75,1.27,4.76,1.27c3.02,0,5.23-1.58,5.23-5.67v-1.81h-0.07
			c-0.91,1.51-2.65,2.72-5.17,2.72c-4.02,0-6.91-3.42-6.91-7.92c0-5.5,3.59-8.62,7.31-8.62c2.82,0,4.36,1.48,5.06,2.82h0.07
			l0.13-2.45H405.62z M402.57,506.14c0-0.5-0.03-0.94-0.17-1.34c-0.54-1.71-1.98-3.12-4.13-3.12c-2.82,0-4.83,2.38-4.83,6.14
			c0,3.19,1.61,5.84,4.8,5.84c1.81,0,3.45-1.14,4.09-3.02c0.17-0.5,0.23-1.07,0.23-1.58V506.14z"/>
		<path class="st1" d="M415.51,512.41c1.31,0.8,3.22,1.48,5.23,1.48c2.98,0,4.73-1.58,4.73-3.86c0-2.11-1.21-3.32-4.26-4.49
			c-3.69-1.31-5.97-3.22-5.97-6.41c0-3.52,2.92-6.14,7.31-6.14c2.31,0,3.99,0.54,5,1.11l-0.8,2.38c-0.74-0.4-2.25-1.07-4.29-1.07
			c-3.08,0-4.26,1.84-4.26,3.39c0,2.11,1.38,3.15,4.49,4.36c3.82,1.48,5.77,3.32,5.77,6.64c0,3.49-2.58,6.51-7.92,6.51
			c-2.18,0-4.56-0.64-5.77-1.44L415.51,512.41z"/>
		<path class="st1" d="M433.35,508.39c0.07,3.99,2.62,5.63,5.57,5.63c2.11,0,3.39-0.37,4.49-0.84l0.5,2.11
			c-1.04,0.47-2.82,1.01-5.4,1.01c-5,0-7.98-3.29-7.98-8.18c0-4.9,2.88-8.75,7.61-8.75c5.3,0,6.71,4.66,6.71,7.65
			c0,0.6-0.07,1.07-0.1,1.38H433.35z M442.01,506.27c0.03-1.88-0.77-4.8-4.09-4.8c-2.99,0-4.29,2.75-4.53,4.8H442.01z"/>
		<path class="st1" d="M447.67,504.8c0-1.91-0.03-3.56-0.13-5.06h2.58l0.1,3.19h0.13c0.74-2.18,2.51-3.55,4.49-3.55
			c0.33,0,0.57,0.03,0.84,0.1v2.78c-0.3-0.07-0.6-0.1-1.01-0.1c-2.08,0-3.55,1.58-3.96,3.79c-0.07,0.4-0.13,0.87-0.13,1.38v8.65
			h-2.92V504.8z"/>
		<path class="st1" d="M459.78,499.73l3.19,9.12c0.54,1.48,0.97,2.82,1.31,4.16h0.1c0.37-1.34,0.84-2.68,1.38-4.16l3.15-9.12h3.09
			l-6.37,16.23h-2.82l-6.17-16.23H459.78z"/>
		<path class="st1" d="M477.21,495.17c0.03,1.01-0.7,1.81-1.88,1.81c-1.04,0-1.78-0.8-1.78-1.81c0-1.04,0.77-1.84,1.84-1.84
			C476.51,493.33,477.21,494.13,477.21,495.17z M473.93,515.97v-16.23h2.95v16.23H473.93z"/>
		<path class="st1" d="M492.51,515.36c-0.77,0.4-2.48,0.94-4.66,0.94c-4.9,0-8.08-3.32-8.08-8.28c0-5,3.42-8.62,8.72-8.62
			c1.74,0,3.29,0.44,4.09,0.84l-0.67,2.28c-0.71-0.4-1.81-0.77-3.42-0.77c-3.72,0-5.73,2.75-5.73,6.14c0,3.76,2.41,6.07,5.63,6.07
			c1.68,0,2.78-0.44,3.62-0.8L492.51,515.36z"/>
		<path class="st1" d="M496.56,508.39c0.07,3.99,2.62,5.63,5.57,5.63c2.11,0,3.39-0.37,4.49-0.84l0.5,2.11
			c-1.04,0.47-2.82,1.01-5.4,1.01c-5,0-7.98-3.29-7.98-8.18c0-4.9,2.88-8.75,7.61-8.75c5.3,0,6.71,4.66,6.71,7.65
			c0,0.6-0.07,1.07-0.1,1.38H496.56z M505.22,506.27c0.03-1.88-0.77-4.8-4.09-4.8c-2.99,0-4.29,2.75-4.53,4.8H505.22z"/>
	</g>
</g>
</svg>
