<svg xmlns="http://www.w3.org/2000/svg" xml:space="preserve" width="512" height="512" id="viber">
  <g fill="#efb93f">
    <path d="M425.681 86.344C382.233 42.91 322.187 16.066 256.029 16.066c-66.293 0-126.344 26.844-169.785 70.277-43.315 43.447-70.282 103.494-70.282 169.654 0 66.297 26.967 126.211 70.282 169.659 43.44 43.438 103.492 70.276 169.785 70.276 66.158 0 126.205-26.839 169.652-70.276 43.311-43.448 70.282-103.362 70.282-169.659 0-66.159-26.972-126.206-70.282-169.653zm-13.287 326.154c-39.988 39.988-95.389 64.702-156.365 64.702-61.114 0-116.514-24.714-156.502-64.702-39.989-40.121-64.698-95.385-64.698-156.5 0-61.107 24.709-116.375 64.698-156.363C139.515 59.646 194.915 34.8 256.029 34.8c60.976 0 116.376 24.847 156.365 64.835 39.989 39.988 64.836 95.256 64.836 156.363-.001 61.115-24.847 116.379-64.836 156.5z"></path>
    <path d="M266.055 159.023c54.066 8.23 76.945 33.469 86.945 86.749v1.32c0 4.916-1.648 11.299 4.854 11.299 5.715.133 5.416-4.116 5.416-8.237-.265-1.458-.548-2.655-.548-3.848.662-50.36-44.243-97.115-96.057-98.715-4.116.662-11.6-2.659-12.26 5.977-.137 5.721 7.126 4.916 11.65 5.455zM347.961 304.489c-6.776-5.318-14.22-10.098-21.123-15.014-14.215-9.568-27.236-10.354-37.731 5.181-5.977 8.773-14.352 9.171-22.982 5.314-24.047-10.495-42.513-26.834-53.406-50.882-1.597-3.719-2.657-7.301-2.792-10.622-.4-6.379 2.257-11.953 9.435-16.874 5.976-3.852 11.82-8.503 11.422-17.139-.53-11.29-28.433-48.89-39.586-53.011-4.521-1.595-9.038-1.324-13.687 0-25.907 8.631-36.534 29.366-26.307 53.938 5.846 13.821 12.092 26.706 19.531 38.791 31.753 53.144 78.515 91.939 138.831 117.312 4.117 1.727 8.769 2.526 11.29 3.057 16.874.265 36.535-15.81 42.251-31.49 5.579-15.274-6.109-21.117-15.146-28.561z"></path>
    <path d="M275.555 173.636c-5.314-.672-12.09-2.929-13.282 4.112-1.327 7.306 6.241 6.78 11.157 7.84 33.482 7.311 44.905 19.259 50.484 51.686.26 1.33.401 3.053.401 4.515.397 3.852 1.325 7.301 7.169 6.246 2.925-.402 3.989-1.992 4.121-4.249.398-1.997 0-4.656.266-6.512.133-31.23-27.103-59.526-60.316-63.638z"></path>
    <path d="M278.611 199.272c-3.454 0-6.908.397-8.238 4.122-1.992 5.313 2.129 6.771 6.241 7.434 13.689 1.996 20.862 9.97 22.325 23.252.132 1.859.799 3.321 1.594 4.523 1.197 1.315 2.655 1.854 4.515 1.723 1.197 0 2.125-.407 2.92-.8 2.267-1.728 2.659-4.917 2.394-8.238.265-15.005-17.007-32.418-31.751-32.016z"></path>
  </g>
</svg>
